<svg xmlns="http://www.w3.org/2000/svg" width="840" height="280" viewBox="180 -180 840 280" style="background: radial-gradient(farthest-corner circle at center, #21272D, #17191B);" fill="none" stroke="#EAF9FF" stroke-linecap="round" stroke-linejoin="round">
  <defs>
    <g id="asteroids-drawing" transform="rotate(-39)">
      <polygon points="243.89453303828668 191.73728422098898 254.1078664695206 189.39785177071775 254.26240700684465 200.37382484789495 269.8142179596816 213.32863578825388 249.99565020583302 209.21641952456633 241.3075960664857 215.9256358007319 236.7832717032673 206.4749420154413" opacity="0.9" stroke-width="1.5"/>
      <polyline points="243.89453303828668 191.73728422098898 254.26240700684465 200.37382484789495 254.3396772755067 205.86181138648354 249.99565020583302 209.21641952456633 236.7832717032673 206.4749420154413" opacity="0.7" stroke-width="1.2999999999999998"/>
      <polygon points="562.3403548815336 351.24239664696296 587.8349481449009 341.0423162751726 593.1892666547022 347.12345520197215 604.2309262711534 366.3646939947854 616.1091946358911 382.62682436351014 594.6504022983113 397.30648880022017 583.9313197017478 412.742090117856 546.8827868644087 396.32575066488505 548.2811379295856 388.885246146539 541.0830411426672 368.7334093981504" opacity="0.5" stroke-width="1.1"/>
      <polygon points="426.5166650644743 459.72652778075656 419.0964491796321 455.2944996491268 407.88829775900837 441.7522882992592 410.03167285915055 431.34166045920625 416.97457629605947 417.09493213653457 430.24378319767294 404.65522602857436 432.2651221338365 404.0770114084458 450.1474808307489 397.3924212453197 450.39824509840093 397.35254901408865 454.26153962686686 397.76352164138956 460.41324785764766 399.48632149825795" opacity="0.5" stroke-width="1.1"/>
      <polygon points="446.07819485492865 377.6934887123331 426.75651137103745 370.84717110279854 408.0529007868008 356.27894839476704 402.86745018105455 342.82208897547264 399.5388621673523 329.20323122445177 401.1368528932415 326.82454052404944 460.5102764762209 310.67324956614016 470.8218159455754 331.4396872694862 473.2866962890413 340.9323273126502 470.00216950039504 344.72320967038274 459.3275166049329 354.4086308411582" opacity="0.5" stroke-width="1.1"/>
      <polygon points="604.5141937578726 344.3547116466677 594.4577934976717 364.22856687266756 597.7492970840663 385.2168492941497 576.2242608859117 394.0094555545388 567.624737338638 401.50548637562827 545.7652617172652 403.720582090086 525.9236425847688 377.14735547484776 537.3886936154668 361.7925344360018 549.3949550488285 336.7407348636973 551.9707953660662 325.6688741228136 573.9558830186241 323.81267898078806" opacity="0.5" stroke-width="1.1"/>
      <polygon points="489.6160064759643 313.6073578038794 489.882042678447 308.78376949631377 498.59668934891005 291.91426922056 498.6386183955013 291.86258300794645 499.94714115734945 290.8818660652903 523.1458071565639 323.47053800457167" opacity="0.5" stroke-width="1.1"/>
      <polygon points="529.0890530156822 366.6727049462062 528.9410681174904 366.7858763571819 495.9700074080753 345.4568943975941 492.00679379015384 330.5302973896281 493.5938781442607 326.3823593262109 522.509967863057 346.01370193762165" opacity="0.5" stroke-width="1.1"/>
      <polygon points="535.8283883232274 251.6260359440778 544.1983114002112 258.3968012570658 539.9630189104827 287.3956331847356 522.3852991801974 298.81844798007785 508.2207585609635 238.7829884343839 530.6813502401452 232.89864961709924" opacity="0.5" stroke-width="1.1"/>
      <polygon points="713.0273677053129 496.5682779898033 721.5448371867718 476.5264018438864 736.5814057247775 480.4502611119567 736.99085717565 503.5812701002325 720.7364267774294 507.67064065248263" opacity="0.5" stroke-width="1.1"/>
      <polygon points="503.54290907416373 454.32216557427614 486.2563748539687 466.22699113510515 459.66029545254156 466.2194120377643 459.0814435228122 429.6973678293376 480.98585480774324 418.51469939513566 495.1213459940069 427.4489051589121" opacity="0.5" stroke-width="1.1"/>
      <polygon points="779.494190075884 550.9455493334312 768.2633467591816 556.6595843427848 735.5066635638212 541.6868824838142 772.3883475094603 513.5069546019932 794.1105467897968 532.1265597577693" opacity="0.5" stroke-width="1.1"/>
      <polyline points="438.99820824973557 294.48133764613823 426.96766805557263 288.70762209098643" opacity="1" stroke-width="1.6"/>
      <polyline points="318.63433849071157 236.8607189979258 306.6142879979094 231.0653130751184" opacity="1" stroke-width="1.6"/>
      <polyline points="789.6176145265558 344.95860421299943 792.6588583377045 345.8306927483631" opacity="0.9111086057289084" stroke-width="1.5111086057289085"/>
      <polyline points="361.27205109603966 176.01077860482457 357.9149434678366 178.75314226603604" opacity="0.7819733496211008" stroke-width="1.3819733496211009"/>
      <polyline points="316.5410430777451 289.2842689441273 316.733370214575 286.6989740497476" opacity="0.5236364011018249" stroke-width="1.123636401101825"/>
      <polyline points="250.04341169846276 351.1564951297637 246.47974078281578 349.18418121605" opacity="0.839098122354776" stroke-width="1.439098122354776"/>
      <polyline points="342.04468526053256 179.83604532315334 338.1850417246559 180.8716786181284" opacity="0.9165554946278598" stroke-width="1.5165554946278599"/>
      <polyline points="318.04890780157865 303.1194973749351 320.14867320450315 299.3153047231541" opacity="0.66053876795268" stroke-width="1.26053876795268"/>
      <polyline points="324.507716631895 149.13908824611792 323.608854030553 149.60480551408602" opacity="0.8478360789692241" stroke-width="1.4478360789692242"/>
      <polyline points="409.9963636298362 272.8048236370356 405.8583138097631 274.89839685546804" opacity="0.8509093124601192" stroke-width="1.4509093124601193"/>
      <polyline points="269.1091743442836 240.3009083173129 268.95768050658035 238.96163057633973" opacity="0.53585356399293" stroke-width="1.1358535639929301"/>
      <polyline points="509.6489818077915 444.2208444633706 509.5432908108615 439.80487611421887" opacity="0.5076169177327796" stroke-width="1.1076169177327797"/>
      <polyline points="529.7345172474782 493.587480496534 529.7200172219766 494.60201285754124" opacity="0.5045490783858733" stroke-width="1.1045490783858734"/>
      <polyline points="629.8757373347551 474.2814245062026 632.3575624465818 474.8576290309527" opacity="0.9273845791106154" stroke-width="1.5273845791106155"/>
      <polyline points="602.2868543699227 353.71986085164224 602.0319716067348 351.6848874813353" opacity="0.5396621366374408" stroke-width="1.1396621366374409"/>
      <polyline points="711.651501055468 348.75896545924314 711.6639843096021 351.172064207913" opacity="0.5016466411744669" stroke-width="1.101646641174467"/>
      <polyline points="589.3958747570892 416.8781004901921 590.917638870921 420.99063524914845" opacity="0.6128112269164889" stroke-width="1.212811226916489"/>
      <polyline points="747.5300072483914 328.2614523983655 751.0329025783439 328.085344537451" opacity="0.9840104513085546" stroke-width="1.5840104513085547"/>
      <polyline points="642.441705454769 452.0538125276811 642.5301307365072 453.7843467492211" opacity="0.5162505792535672" stroke-width="1.1162505792535673"/>
      <polyline points="660.9990989742666 287.2952836773811 665.5532549960963 286.69164188026775" opacity="0.9580533449965918" stroke-width="1.5580533449965919"/>
      <polyline points="786.4824267978502 352.8364073319821 791.1138051249691 353.7254336376106" opacity="0.939632450369811" stroke-width="1.539632450369811"/>
      <polyline points="725.398194763357 257.37629954853213 725.9768536418173 258.3910212097374" opacity="0.6649696696347975" stroke-width="1.2649696696347976"/>
      <polyline points="361.83808541478606 192.22632184685975 359.5700037592055 189.1155112746387" opacity="0.7005314768237421" stroke-width="1.3005314768237421"/>
      <polyline points="599.8059220287291 163.70027093530803 597.3577890881602 162.35737756458462" opacity="0.8402976020136816" stroke-width="1.4402976020136817"/>
      <polyline points="502.4554301328428 114.71505531042868 501.10352724747054 114.79248436893343" opacity="0.9817889742380008" stroke-width="1.581788974238001"/>
      <polyline points="302.70169716814684 390.6674489143867 303.92779478052586 387.8472022382506" opacity="0.6305384179928266" stroke-width="1.2305384179928267"/>
      <polyline points="535.4919212493861 375.4388337228653 537.9791353160125 375.572702451179" opacity="0.9828841978471505" stroke-width="1.5828841978471506"/>
      <polyline points="489.3467409874302 216.70836515576485 489.87854426715415 215.1159362491643" opacity="0.6025951060494488" stroke-width="1.2025951060494489"/>
      <polyline points="368.75640044310853 249.67220295283548 366.4696557156341 250.91988075065623" opacity="0.8410141163676998" stroke-width="1.4410141163677"/>
      <polyline points="617.7460640594167 300.1300603724729 617.018585457172 300.8933466921025" opacity="0.7423557637847186" stroke-width="1.3423557637847185"/>
      <polyline points="447.4112016497213 239.8410260746345 448.3191472275523 242.48624967847587" opacity="0.6052458444357702" stroke-width="1.2052458444357703"/>
      <polyline points="447.8154831082001 234.40908107930395 449.1288128319482 229.8453029024253" opacity="0.5891908991178627" stroke-width="1.1891908991178628"/>
      <polyline points="490.83860963971904 161.4631386439378 491.75977806950834 157.2882500572678" opacity="0.5691259180320722" stroke-width="1.1691259180320723"/>
      <polyline points="475.1785172592984 353.1445568209548 475.26505306399116 356.3592766428184" opacity="0.5085663925214636" stroke-width="1.1085663925214635"/>
      <polyline points="627.3864016635514 255.02236984039075 625.2037836877264 246.24902513124908" opacity="0.5776130279764305" stroke-width="1.1776130279764305"/>
      <polyline points="635.0596499973268 267.12499037880167 634.7433202998162 267.1728048439051" opacity="0.9522477055636138" stroke-width="1.5522477055636137"/>
      <polyline points="456.7674465141211 224.95327679159809 457.1732148621592 221.53277433939743" opacity="0.5375849067929457" stroke-width="1.1375849067929455"/>
      <polyline points="537.0330913542676 267.11081193367994 541.0309428225052 268.01598032363137" opacity="0.9291252399597114" stroke-width="1.5291252399597113"/>
      <polyline points="479.3614716025015 235.48169394734438 478.1955827509446 232.7823868289349" opacity="0.629780862818344" stroke-width="1.229780862818344"/>
      <polyline points="532.0548580633142 278.8407427993759 534.24766670654 277.1392561327972" opacity="0.7899483534720448" stroke-width="1.389948353472045"/>
      <polyline points="505.9585450101955 293.49185704705866 507.65427596809 293.45397271056225" opacity="0.9928898195251354" stroke-width="1.5928898195251353"/>
      <polyline points="461.16049693177615 239.15011727613984 460.03426196980456 239.61399732496403" opacity="0.8756329939814708" stroke-width="1.4756329939814707"/>
      <polyline points="467.54352707112486 227.95147031065403 468.06110976241774 230.30570726535854" opacity="0.5688850360471658" stroke-width="1.1688850360471656"/>
      <polyline points="594.0783076066841 221.7916329100347 596.8454054933077 229.34827828511447" opacity="0.6117319824300262" stroke-width="1.2117319824300261"/>
      <polyline points="599.4491525343661 286.2590302975216 575.1343111738935 283.0449889528942" opacity="0.9581669372014038" stroke-width="1.5581669372014038"/>
      <polyline points="960.5964620205607 308.9373972341805 962.1109477643106 308.5121465890828" opacity="0.9128658474244769" stroke-width="1.512865847424477"/>
      <polyline points="857.8969072778933 287.7996229681826 862.6914096526908 286.6577993935691" opacity="0.9255799324736311" stroke-width="1.5255799324736312"/>
      <polyline points="834.7301853180745 253.06392520926923 834.8435661108865 251.72601931521595" opacity="0.5269108621836454" stroke-width="1.1269108621836454"/>
      <polyline points="819.1571277631292 215.80878268160072 816.210311103026 215.09761059273816" opacity="0.9246218125271572" stroke-width="1.5246218125271573"/>
      <polyline points="995.7355833167538 69.51261224102416 995.7572397668752 71.2938804200383" opacity="0.5038697836935973" stroke-width="1.1038697836935971"/>
      <polyline points="982.9486214811525 65.96832717040606 980.4733055019342 65.9324606237334" opacity="0.99538811303083" stroke-width="1.5953881130308298"/>
      <polyline points="888.6511778974527 888.2168184310381 886.0242163860084 888.5667556634903" opacity="0.9578461469163109" stroke-width="1.5578461469163107"/>
      <polyline points="460.9609048968726 287.0275905577798 460.1608004472635 288.26708683825274" opacity="0.682458644063101" stroke-width="1.282458644063101"/>
      <polyline points="492.48766296102707 223.9002833281672 492.33927079827816 221.71061470882526" opacity="0.5215386837653335" stroke-width="1.1215386837653334"/>
      <polyline points="381.6996136219555 333.61765595257225 379.8053356489584 336.8388641815442" opacity="0.6692126174053183" stroke-width="1.2692126174053184"/>
      <polyline points="393.6540785165659 348.27452860779374 391.79905705344817 349.33426571554287" opacity="0.8347862547118182" stroke-width="1.4347862547118182"/>
      <polyline points="421.5317371212659 262.0228135055194 423.83894895406354 265.27484915595363" opacity="0.6964135635753266" stroke-width="1.2964135635753267"/>
      <polyline points="494.6526682734135 240.10931054344996 492.0479824883622 237.79980030256814" opacity="0.7690966214700956" stroke-width="1.3690966214700957"/>
      <polyline points="753.8116710394152 153.77675379675082 752.5844049435623 152.38922422975054" opacity="0.7305148399385105" stroke-width="1.3305148399385105"/>
      <polyline points="768.0683299460635 280.7015595429103 770.641074719687 279.28589231240966" opacity="0.8398775759197386" stroke-width="1.4398775759197386"/>
      <polyline points="846.9529437817372 166.64665034714216 849.5720647347056 168.09762791518807" opacity="0.8389655867856014" stroke-width="1.4389655867856015"/>
      <polyline points="861.3416734379754 177.2326876368714 864.240438132959 178.35845025826626" opacity="0.8820880530568103" stroke-width="1.4820880530568101"/>
      <polyline points="484.68344521056616 250.94389318722648 485.31010067808194 252.63006689385253" opacity="0.6132625283998479" stroke-width="1.2132625283998477"/>
      <polyline points="396.51622698156837 296.78409010682276 398.4253601406483 297.30419575912424" opacity="0.9153373425785994" stroke-width="1.5153373425785994"/>
      <polyline points="374.7689321815842 331.4825602919996 374.63082874381564 329.61132478525514" opacity="0.5234498191531456" stroke-width="1.1234498191531457"/>
      <polyline points="467.23436895994917 287.19946034760005 469.30435465678397 286.47751615264383" opacity="0.8931826507712779" stroke-width="1.4931826507712778"/>
      <polyline points="464.7791049933993 280.3173514740258 466.981890524563 277.3755634096934" opacity="0.7045864028656712" stroke-width="1.304586402865671"/>
      <polyline points="425.8985239426912 298.68580453837 427.1562299351916 298.44955604419613" opacity="0.9408971271968136" stroke-width="1.5408971271968137"/>
      <polyline points="459.73566612770486 251.5050582815282 461.45863554608485 253.5671475606319" opacity="0.7215571764225461" stroke-width="1.3215571764225462"/>
      <polyline points="443.7610186906294 283.29818852841015 442.6486742642412 280.96468176132964" opacity="0.641590957955493" stroke-width="1.2415909579554931"/>
      <polyline points="420.0659923772006 279.4299529914621 423.484454080845 279.4772065600647" opacity="0.995600266598052" stroke-width="1.595600266598052"/>
      <polyline points="388.36933456481927 249.69578407756993 390.79629736531524 249.29469804421214" opacity="0.9478665102499597" stroke-width="1.5478665102499596"/>
      <polyline points="488.61218793048846 296.1145341599992 487.7450431380883 301.5811462042673" opacity="0.5500748922288252" stroke-width="1.150074892228825"/>
      <polyline points="500.91696270986483 274.5766242553028 502.78940939404936 283.3024669584805" opacity="0.5672845814775666" stroke-width="1.1672845814775665"/>
      <polyline points="513.0990905183568 269.1134275158275 516.4007232607365 272.65864909222734" opacity="0.7386803424812245" stroke-width="1.3386803424812244"/>
      <polyline points="503.46772761930293 296.13883946797415 506.09296562794344 297.957105680482" opacity="0.807184096991779" stroke-width="1.407184096991779"/>
      <polyline points="510.89487531347083 289.4799347085962 511.99733933179175 287.45921975067284" opacity="0.6589780586941191" stroke-width="1.258978058694119"/>
      <polyline points="515.0979827809566 327.0353180006508 515.010197984573 320.8882069185154" opacity="0.504545365925734" stroke-width="1.104545365925734"/>
      <polyline points="483.48389774011304 289.927830155925 482.60926296059966 286.91697889235195" opacity="0.5899904092206854" stroke-width="1.1899904092206852"/>
      <polyline points="413.6403071366779 306.6780237033766 415.43693867128076 311.29505607320294" opacity="0.6181253673663168" stroke-width="1.2181253673663168"/>
      <polyline points="431.78835437236876 296.0068476586326 430.8488946284393 298.74117060671784" opacity="0.6053428686736674" stroke-width="1.2053428686736674"/>
      <polyline points="430.4382463153642 259.0563032196315 429.1723283113154 258.13918844611163" opacity="0.8004330075612001" stroke-width="1.4004330075612001"/>
      <polyline points="407.5151950938325 290.56022128223304 408.1369614138848 287.49703039222146" opacity="0.563744496907844" stroke-width="1.163744496907844"/>
      <polyline points="445.06242939952074 306.2850962263603 446.87519383505105 305.5627783339864" opacity="0.8793032943991175" stroke-width="1.4793032943991173"/>
      <polyline points="438.6040800778551 312.17107742063337 439.12892342112843 310.52564698134876" opacity="0.5982840847915312" stroke-width="1.1982840847915313"/>
      <polyline points="436.6139128113491 286.4446746793712 437.78120285339355 284.39293717480047" opacity="0.6646485630806556" stroke-width="1.2646485630806557"/>
      <polyline points="436.69901449870747 238.51484446949792 439.7197121239077 237.92690905499245" opacity="0.9388105774437019" stroke-width="1.538810577443702"/>
      <polyline points="379.31057861708655 301.41308072872226 380.7935375437165 303.1150556969432" opacity="0.7281454199971931" stroke-width="1.3281454199971932"/>
      <polyline points="480.92278459696837 300.4674204248663 485.4488920837685 298.9881902562789" opacity="0.8994526913575752" stroke-width="1.4994526913575752"/>
      <polyline points="493.66694260499344 281.21407136570036 505.70003831512236 284.2321397941145" opacity="0.9217770644733952" stroke-width="1.5217770644733952"/>
      <polyline points="497.0225816017713 309.66472043434914 507.2719726846624 311.0354232434809" opacity="0.9576819072209672" stroke-width="1.5576819072209673"/>
      <polyline points="499.6074935488187 298.1542122439884 479.6908711009816 302.816709544769" opacity="0.9268015693804212" stroke-width="1.5268015693804213"/>
      <polyline points="475.951515012827 284.76308931355805 473.46358463475923 285.88824286580365" opacity="0.8648077031395001" stroke-width="1.4648077031395"/>
      <polyline points="477.1100628590275 319.6151928767092 481.17661995342223 322.41167259121187" opacity="0.8082476259387901" stroke-width="1.40824762593879"/>
      <polyline points="488.74209189453677 318.1915270229559 489.5014371939046 319.4652623901139" opacity="0.671119708732134" stroke-width="1.271119708732134"/>
      <polyline points="479.25727186241437 332.37968909850525 480.185615348804 334.9912218560756" opacity="0.6087177843942874" stroke-width="1.2087177843942873"/>
      <polyline points="475.03180642047386 318.639350654685 473.3125348649616 320.33224858117205" opacity="0.752460258708198" stroke-width="1.352460258708198"/>
      <polyline points="472.53066137960803 312.61963163152683 470.4725346674567 311.92700146464864" opacity="0.8966674996289561" stroke-width="1.496667499628956"/>
      <polyline points="475.9840556080412 326.53241563821854 473.5464114913551 324.2868176931733" opacity="0.7630456558967313" stroke-width="1.3630456558967312"/>
      <polyline points="485.87547063896807 332.9078360601216 486.8480994353273 330.35823385456086" opacity="0.6160054500706535" stroke-width="1.2160054500706536"/>
      <polyline points="486.18414843462864 327.9762490932065 490.37922042989993 325.8869858352139" opacity="0.8529189475354901" stroke-width="1.45291894753549"/>
      <polyline points="1108 52 1118 36 1114.5833333333333 38.08333333333333 1110.6666666666667 38.666666666666664 1105.8765432098764 37.4320987654321 1102.567901234568 34.123456790123456 1101.3333333333333 29.333333333333332 1102.567901234568 24.54320987654321 1105.8765432098764 21.23456790123457 1110.6666666666667 20 1115.4567901234568 21.234567901234566 1118.7654320987654 24.54320987654321 1120 29.333333333333332 1118 36" opacity="0.3" stroke-width="0.8999999999999999"/>
      <polyline points="1125.3333333333333 20 1142.6666666666665 20 1130.6666666666665 52" opacity="0.3" stroke-width="0.8999999999999999"/>
      <polyline points="1165.9999999999998 52 1148.6666666666665 52 1157.9999999999998 40 1163.0833333333333 33.25 1164.6666666666665 28 1162.6666666666665 22.5 1156.6666666666665 20 1151.7499999999998 21.666666666666668 1149.3333333333333 25.333333333333332" opacity="0.3" stroke-width="0.8999999999999999"/>
    </g>
  </defs>
  <use href="#asteroids-drawing"/>
  <defs>
    <filter id="asteroids-blur1">
      <feGaussianBlur stdDeviation="3"/>
    </filter>
    <filter id="asteroids-blur2">
      <feGaussianBlur stdDeviation="20"/>
    </filter>
  </defs>
  <use href="#asteroids-drawing" filter="url(#asteroids-blur2)" opacity="0.4"/>
  <use href="#asteroids-drawing" filter="url(#asteroids-blur1)" opacity="0.4"/>
</svg>
